# xmcd
#
# Track frame offsets: 
#        150
#        21475
#        41863
#        62835
#        78099
#        91673
#        112274
#        125061
#        142744
#        157739
#        177213
#        192119
#        205791
#        218367
#
# Disc length: 3151 seconds
#
# Revision: 1
# Processed by: cddbd v1.5.2PL0 Copyright (c) Steve Scherf et al.
# Submitted via: ExactAudioCopyFreeDBPlugin 1.0
#
DISCID=b60c4d0e
DTITLE=Bjøro Håland - Mine Salmer
DYEAR=2004
DGENRE=Other
TTITLE0=Navnet Jesus
TTITLE1=Blott en dag
TTITLE2=Jeg er i Herrens hender
TTITLE3=Den fyrste song eg høyra fekk
TTITLE4=Et ungdomsliv
TTITLE5=Lei milde ljos
TTITLE6=Klippe, du som brast for meg
TTITLE7=Eg veit i himmelrik ei borg
TTITLE8=Min gårsdag er forbi
TTITLE9=La meg få høre om Jesus
TTITLE10=Fager kveldssol smiler
TTITLE11=Der ingen ensom står igjen
TTITLE12=Herre Gud, ditt dyre navn og ære
TTITLE13=O store Gud
EXTD=Bjøro Håland synger sine salmer.
EXTT0=
EXTT1=
EXTT2=
EXTT3=
EXTT4=
EXTT5=
EXTT6=
EXTT7=
EXTT8=
EXTT9=
EXTT10=
EXTT11=
EXTT12=
EXTT13=
PLAYORDER=
